<mxfile host="app.diagrams.net" modified="2021-02-17T18:24:52.518Z" agent="5.0 (X11)" etag="kWGlVP51NnH9F1e-NZ9-" version="14.4.0" type="github">
  <diagram id="GddCDM5jnQ_dlsErp8QU" name="Page-1">
    <mxGraphModel dx="782" dy="737" grid="1" gridSize="10" guides="1" tooltips="1" connect="1" arrows="1" fold="1" page="1" pageScale="1" pageWidth="850" pageHeight="1100" math="0" shadow="0">
      <root>
        <mxCell id="0" />
        <mxCell id="1" parent="0" />
        <mxCell id="RTTls062UUNZIikZmeOY-8" value="" style="rounded=0;whiteSpace=wrap;html=1;fillColor=none;dashed=1;" vertex="1" parent="1">
          <mxGeometry x="240" y="320" width="510" height="420" as="geometry" />
        </mxCell>
        <mxCell id="RTTls062UUNZIikZmeOY-4" style="edgeStyle=orthogonalEdgeStyle;rounded=0;orthogonalLoop=1;jettySize=auto;html=1;exitX=1;exitY=0.5;exitDx=0;exitDy=0;entryX=0;entryY=0.5;entryDx=0;entryDy=0;" edge="1" parent="1" source="RTTls062UUNZIikZmeOY-1" target="RTTls062UUNZIikZmeOY-3">
          <mxGeometry relative="1" as="geometry" />
        </mxCell>
        <mxCell id="RTTls062UUNZIikZmeOY-6" style="edgeStyle=orthogonalEdgeStyle;rounded=0;orthogonalLoop=1;jettySize=auto;html=1;exitX=1;exitY=0.5;exitDx=0;exitDy=0;entryX=0;entryY=0.5;entryDx=0;entryDy=0;" edge="1" parent="1" source="RTTls062UUNZIikZmeOY-1" target="RTTls062UUNZIikZmeOY-5">
          <mxGeometry relative="1" as="geometry" />
        </mxCell>
        <mxCell id="RTTls062UUNZIikZmeOY-16" style="edgeStyle=orthogonalEdgeStyle;rounded=0;orthogonalLoop=1;jettySize=auto;html=1;exitX=1;exitY=0.5;exitDx=0;exitDy=0;entryX=0;entryY=0.5;entryDx=0;entryDy=0;" edge="1" parent="1" source="RTTls062UUNZIikZmeOY-1" target="RTTls062UUNZIikZmeOY-7">
          <mxGeometry relative="1" as="geometry" />
        </mxCell>
        <mxCell id="RTTls062UUNZIikZmeOY-17" style="edgeStyle=orthogonalEdgeStyle;rounded=0;orthogonalLoop=1;jettySize=auto;html=1;exitX=1;exitY=0.5;exitDx=0;exitDy=0;entryX=0;entryY=0.5;entryDx=0;entryDy=0;" edge="1" parent="1" source="RTTls062UUNZIikZmeOY-1" target="RTTls062UUNZIikZmeOY-15">
          <mxGeometry relative="1" as="geometry" />
        </mxCell>
        <mxCell id="RTTls062UUNZIikZmeOY-1" value="hello_robot_urdf.xacro" style="rounded=1;whiteSpace=wrap;html=1;" vertex="1" parent="1">
          <mxGeometry x="340" y="370" width="120" height="60" as="geometry" />
        </mxCell>
        <mxCell id="RTTls062UUNZIikZmeOY-3" value="&lt;div&gt;hello_robot_gazebo.xacro&lt;/div&gt;" style="rounded=1;whiteSpace=wrap;html=1;" vertex="1" parent="1">
          <mxGeometry x="520" y="330" width="160" height="60" as="geometry" />
        </mxCell>
        <mxCell id="RTTls062UUNZIikZmeOY-5" value="common_macros.urdf.xacro" style="rounded=1;whiteSpace=wrap;html=1;" vertex="1" parent="1">
          <mxGeometry x="520" y="420" width="160" height="60" as="geometry" />
        </mxCell>
        <mxCell id="RTTls062UUNZIikZmeOY-7" value="common_sensors.xacro" style="rounded=1;whiteSpace=wrap;html=1;" vertex="1" parent="1">
          <mxGeometry x="520" y="500" width="160" height="60" as="geometry" />
        </mxCell>
        <mxCell id="RTTls062UUNZIikZmeOY-9" value="hello_robot_description" style="text;html=1;strokeColor=none;fillColor=none;align=center;verticalAlign=middle;whiteSpace=wrap;rounded=0;dashed=1;fontStyle=1" vertex="1" parent="1">
          <mxGeometry x="60" y="430" width="40" height="20" as="geometry" />
        </mxCell>
        <mxCell id="RTTls062UUNZIikZmeOY-10" value="Launch" style="text;html=1;strokeColor=none;fillColor=none;align=center;verticalAlign=middle;whiteSpace=wrap;rounded=0;dashed=1;" vertex="1" parent="1">
          <mxGeometry x="260" y="660" width="40" height="20" as="geometry" />
        </mxCell>
        <mxCell id="RTTls062UUNZIikZmeOY-11" value="URDF" style="text;html=1;strokeColor=none;fillColor=none;align=center;verticalAlign=middle;whiteSpace=wrap;rounded=0;dashed=1;" vertex="1" parent="1">
          <mxGeometry x="260" y="410" width="40" height="20" as="geometry" />
        </mxCell>
        <mxCell id="RTTls062UUNZIikZmeOY-13" value="hello_robot_rviz.launch" style="rounded=1;whiteSpace=wrap;html=1;dashed=1;fillColor=none;" vertex="1" parent="1">
          <mxGeometry x="340" y="650" width="140" height="60" as="geometry" />
        </mxCell>
        <mxCell id="RTTls062UUNZIikZmeOY-14" value="&lt;div&gt;TESTED:&amp;nbsp;&lt;/div&gt;&lt;ul&gt;&lt;li&gt;RVIZ working&lt;/li&gt;&lt;li&gt;able to move joints&lt;/li&gt;&lt;li&gt;urdf is properly constructed&lt;br&gt;&lt;/li&gt;&lt;/ul&gt;" style="text;html=1;strokeColor=none;fillColor=none;align=left;verticalAlign=middle;whiteSpace=wrap;rounded=0;dashed=1;" vertex="1" parent="1">
          <mxGeometry x="20" y="500" width="150" height="40" as="geometry" />
        </mxCell>
        <mxCell id="RTTls062UUNZIikZmeOY-15" value="sensors.yaml" style="rounded=1;whiteSpace=wrap;html=1;" vertex="1" parent="1">
          <mxGeometry x="520" y="580" width="160" height="60" as="geometry" />
        </mxCell>
      </root>
    </mxGraphModel>
  </diagram>
</mxfile>
